<!-- This Source Code Form is subject to the terms of the Mozilla Public
   - License, v. 2.0. If a copy of the MPL was not distributed with this
   - file, You can obtain one at http://mozilla.org/MPL/2.0/. -->
<svg xmlns="http://www.w3.org/2000/svg" width="100" height="106" fill="none"><path fill="url(#a)" d="M49.898 12.284a5.454 5.454 0 0 1 3.164 1.228c.584.481 1.13 1.031 1.71 1.51 3.63 2.981 7.663 5.061 12.17 6.668 2.49.888 5.536 1.693 8.15 2.095 1.92.296 3.873.4 5.806.497.383.02.705-.02 1.095.048 1.482.263 2.776 1.486 3.164 2.931.21.784.156 1.75.178 2.565.122 4.31-.03 8.626-.378 12.914-1.435 17.637-7.124 33.09-21.597 43.032-4.096 2.814-8.773 5.09-13.462 6.74v9.772c5.876-2.068 11.597-4.85 16.727-8.375 4.962-3.408 8.817-7.048 12.221-11.324 9.572-12.024 13.406-27.05 14.638-42.194.433-5.334.622-10.7.47-16.062-.028-1.013.04-2.214-.222-3.189-.482-1.798-2.09-3.318-3.934-3.646-.485-.086-.886-.035-1.362-.059-2.404-.12-4.834-.25-7.222-.618-3.25-.5-7.04-1.5-10.137-2.606-5.596-1.996-10.615-4.58-15.133-8.293-2.035-1.672-3.218-3.432-6.046-3.422v9.788Z"/><path fill="url(#b)" d="M49.899 12.285a5.454 5.454 0 0 0-3.164 1.228c-.584.481-1.128 1.031-1.71 1.51-3.63 2.981-7.663 5.061-12.168 6.668-2.49.888-5.537 1.693-8.151 2.095-1.92.296-3.873.4-5.807.497-.383.02-.704-.02-1.095.048-1.482.263-2.775 1.486-3.163 2.931-.21.784-.156 1.75-.18 2.565-.12 4.31.03 8.626.38 12.914 1.434 17.637 7.123 33.09 21.596 43.032 4.097 2.814 8.773 5.09 13.462 6.74v9.772c-5.876-2.068-11.597-4.85-16.726-8.375-4.962-3.408-8.817-7.048-12.222-11.324C11.38 70.561 7.546 55.536 6.314 40.391c-.434-5.334-.623-10.7-.471-16.062.028-1.013-.04-2.214.222-3.189.483-1.798 2.091-3.318 3.934-3.646.486-.086.886-.035 1.362-.059 2.405-.12 4.835-.25 7.222-.618 3.25-.5 7.04-1.5 10.137-2.606 5.596-1.996 10.615-4.58 15.133-8.293 2.036-1.672 3.218-3.432 6.046-3.422v9.789Z"/><path fill="url(#c)" d="M49.898 92.512c-4.689-1.649-9.365-3.925-13.462-6.739C21.963 75.831 16.275 60.38 14.84 42.741c-.348-4.288-.5-8.604-.379-12.914.023-.815-.03-1.78.18-2.564.387-1.446 1.68-2.669 3.163-2.932.39-.069.712-.028 1.095-.047 1.933-.098 3.887-.202 5.806-.497 2.614-.403 5.66-1.208 8.151-2.096 4.506-1.607 8.539-3.686 12.168-6.668.582-.478 1.127-1.029 1.71-1.51a5.453 5.453 0 0 1 3.164-1.228v80.227Z"/><path fill="url(#d)" d="M49.898 12.285a5.454 5.454 0 0 1 3.164 1.23c.584.48 1.128 1.03 1.71 1.508 3.63 2.982 7.663 5.061 12.17 6.668 2.49.888 5.536 1.693 8.15 2.096 1.92.295 3.873.4 5.806.497.383.02.705-.022 1.095.047 1.482.264 2.776 1.486 3.164 2.932.21.783.156 1.75.178 2.564.122 4.31-.03 8.626-.378 12.914-1.435 17.638-7.124 33.09-21.597 43.032-4.096 2.814-8.773 5.09-13.462 6.74V12.284Z"/><path fill="url(#e)" d="M41.977 33.807c-.41-4.59 3.203-8.541 7.81-8.541 4.598 0 8.21 3.937 7.813 8.517l-2.467 28.494a5.323 5.323 0 0 1-10.605.015l-2.55-28.485Z"/><path fill="url(#f)" d="M49.802 82.233a5.343 5.343 0 1 0 0-10.686 5.343 5.343 0 0 0 0 10.686Z"/><defs><linearGradient id="a" x1="61.046" x2="84.495" y1="-6.275" y2="141.586" gradientUnits="userSpaceOnUse"><stop stop-color="#EA00E1"/><stop offset=".052" stop-color="#D303E5"/><stop offset=".177" stop-color="#9F0AED"/><stop offset=".301" stop-color="#750FF3"/><stop offset=".42" stop-color="#5413F8"/><stop offset=".534" stop-color="#3C17FC"/><stop offset=".639" stop-color="#2E18FE"/><stop offset=".729" stop-color="#2919FF"/></linearGradient><linearGradient id="b" x1="15.177" x2="84.217" y1="6.821" y2="131.373" gradientUnits="userSpaceOnUse"><stop offset=".067" stop-color="#F942FF"/><stop offset=".217" stop-color="#D03AFF"/><stop offset=".496" stop-color="#892CFF"/><stop offset=".729" stop-color="#52F"/><stop offset=".904" stop-color="#351BFF"/><stop offset="1" stop-color="#2919FF"/></linearGradient><linearGradient id="c" x1="29.427" x2="48.287" y1="9.871" y2="128.79" gradientUnits="userSpaceOnUse"><stop offset=".139" stop-color="#F942FF"/><stop offset="1" stop-color="#2919FF"/></linearGradient><linearGradient id="d" x1="57.899" x2="78.74" y1="5.244" y2="123.436" gradientUnits="userSpaceOnUse"><stop offset=".046" stop-color="#F057F9"/><stop offset=".209" stop-color="#B846FB"/><stop offset=".381" stop-color="#8636FC"/><stop offset=".542" stop-color="#5D29FD"/><stop offset=".688" stop-color="#4120FE"/><stop offset=".815" stop-color="#2F1BFF"/><stop offset=".908" stop-color="#2919FF"/></linearGradient><linearGradient id="e" x1="49.746" x2="49.746" y1="17.987" y2="95.455" gradientUnits="userSpaceOnUse"><stop offset=".114" stop-color="#FFEB49"/><stop offset=".87" stop-color="#F60"/><stop offset="1" stop-color="#FB2872"/></linearGradient><linearGradient id="f" x1="49.784" x2="49.784" y1="65.666" y2="91.691" gradientUnits="userSpaceOnUse"><stop stop-color="#FFEB49"/><stop offset=".647" stop-color="#F60"/><stop offset="1" stop-color="#FB2872"/></linearGradient></defs></svg>
