<!-- This Source Code Form is subject to the terms of the Mozilla Public
   - License, v. 2.0. If a copy of the MPL was not distributed with this
   - file, You can obtain one at http://mozilla.org/MPL/2.0/. -->
<svg xmlns="http://www.w3.org/2000/svg" width="100" height="106" fill="none"><g clip-path="url(#a)"><mask id="b" width="100" height="106" x="0" y="0" maskUnits="userSpaceOnUse" style="mask-type:luminance"><path fill="#fff" d="M0 0h100v106H0V0Z"/></mask><g mask="url(#b)"><path fill="url(#c)" d="M44.4 14.357a5.428 5.428 0 0 1 3.138 1.21c.58.475 1.12 1.017 1.696 1.49 3.6 2.94 7.6 4.99 12.068 6.573 2.47.876 5.491 1.67 8.083 2.066 1.904.291 3.842.394 5.76.49.38.02.698-.02 1.085.047 1.47.26 2.753 1.465 3.138 2.89.208.773.154 1.725.177 2.528.12 4.25-.03 8.505-.376 12.732-1.422 17.39-7.064 32.624-21.418 42.426-4.063 2.774-8.7 5.018-13.35 6.644v9.635c5.827-2.038 11.5-4.783 16.587-8.257 4.922-3.36 8.745-6.948 12.12-11.164 9.494-11.855 13.296-26.67 14.518-41.6.43-5.258.617-10.55.467-15.835-.028-.999.04-2.183-.22-3.144-.48-1.773-2.074-3.27-3.903-3.594-.48-.085-.878-.035-1.35-.059-2.385-.12-4.795-.246-7.162-.609-3.224-.493-6.982-1.48-10.053-2.57-5.55-1.967-10.528-4.515-15.009-8.175-2.019-1.65-3.19-3.384-5.996-3.374v9.65Z"/><path fill="url(#d)" d="M44.4 14.357a5.428 5.428 0 0 0-3.138 1.21c-.579.475-1.119 1.017-1.696 1.49-3.6 2.94-7.6 4.99-12.068 6.573-2.47.876-5.49 1.67-8.083 2.066-1.904.291-3.84.394-5.759.49-.38.02-.699-.02-1.086.047-1.47.26-2.752 1.465-3.137 2.89-.209.773-.155 1.725-.177 2.528-.12 4.25.03 8.505.375 12.732 1.423 17.39 7.065 32.624 21.418 42.426 4.063 2.774 8.7 5.018 13.351 6.644v9.635c-5.828-2.038-11.5-4.783-16.588-8.257-4.92-3.36-8.744-6.948-12.12-11.164-9.494-11.855-13.296-26.67-14.517-41.6-.43-5.258-.618-10.55-.468-15.835.03-.999-.038-2.183.221-3.144.48-1.773 2.074-3.27 3.902-3.594.481-.085.878-.035 1.35-.059 2.385-.12 4.795-.246 7.163-.609 3.224-.493 6.981-1.48 10.053-2.57 5.55-1.967 10.527-4.515 15.008-8.175 2.02-1.65 3.192-3.384 5.996-3.374v9.65Z"/><path fill="url(#e)" d="M44.4 93.454c-4.65-1.626-9.287-3.87-13.35-6.644-14.354-9.8-19.996-25.036-21.418-42.425-.346-4.228-.497-8.483-.376-12.732.023-.804-.03-1.756.177-2.528.385-1.426 1.668-2.63 3.138-2.89.387-.069.706-.028 1.086-.047 1.917-.097 3.855-.199 5.758-.49 2.593-.397 5.614-1.19 8.084-2.066 4.468-1.584 8.468-3.635 12.067-6.574.578-.472 1.118-1.014 1.697-1.489a5.427 5.427 0 0 1 3.137-1.21v79.095Z"/><path fill="url(#f)" d="M44.4 14.36a5.428 5.428 0 0 1 3.138 1.21c.58.473 1.12 1.016 1.696 1.488 3.6 2.94 7.6 4.99 12.068 6.574 2.47.876 5.491 1.67 8.083 2.066 1.904.291 3.842.393 5.76.49.38.02.698-.022 1.085.047 1.47.26 2.753 1.464 3.137 2.89.21.772.155 1.724.178 2.528.12 4.25-.03 8.504-.376 12.732-1.422 17.39-7.064 32.624-21.418 42.425-4.063 2.775-8.7 5.018-13.35 6.644V14.36Z"/><path fill="url(#g)" d="M60.672 65.204c6.598-14.381 7.486-19.114 13.903-30.27C82.72 20.776 96.047 8.097 99.715 4.741c.24-.22.005-.61-.312-.521-24.898 6.924-39.495 23.472-47.352 35.68 1.186 1.371 2.03 2.78 2.257 4.145 1.075 6.466-4.96 15.198-4.96 15.198s-2.92-3.145-6.36-5.725a431.84 431.84 0 0 0-3.242-2.407c-16.282-11.2-26.736-11.028-27.385-9.442 0 0 8.32 6.528 21.17 25.51 3.392 5.012 8.114 15.412 11.267 15.908 4.165.654 8.241-1.243 15.874-17.883Z"/><path fill="url(#h)" d="M49.348 59.242s6.036-8.733 4.96-15.198c-.227-1.367-1.07-2.774-2.256-4.146-5.368 8.341-7.59 14.657-7.8 14.495a104.15 104.15 0 0 0-4.506-3.284c1.17.86 2.294 1.697 3.241 2.407 3.442 2.58 6.361 5.726 6.361 5.726Z"/><path fill="url(#i)" d="M49.348 59.242s6.036-8.733 4.96-15.198c-.227-1.367-1.07-2.774-2.256-4.146-5.368 8.341-7.59 14.657-7.8 14.495a104.15 104.15 0 0 0-4.506-3.284c1.17.86 2.294 1.697 3.241 2.407 3.442 2.58 6.361 5.726 6.361 5.726Z"/></g></g><defs><linearGradient id="c" x1="55.456" x2="78.445" y1="-3.94" y2="141.879" gradientUnits="userSpaceOnUse"><stop stop-color="#EA00E1"/><stop offset=".052" stop-color="#D303E5"/><stop offset=".177" stop-color="#9F0AED"/><stop offset=".301" stop-color="#750FF3"/><stop offset=".42" stop-color="#5413F8"/><stop offset=".534" stop-color="#3C17FC"/><stop offset=".639" stop-color="#2E18FE"/><stop offset=".729" stop-color="#2919FF"/></linearGradient><linearGradient id="d" x1="9.965" x2="77.818" y1="8.97" y2="132.106" gradientUnits="userSpaceOnUse"><stop offset=".067" stop-color="#F942FF"/><stop offset=".217" stop-color="#D03AFF"/><stop offset=".496" stop-color="#892CFF"/><stop offset=".729" stop-color="#52F"/><stop offset=".904" stop-color="#351BFF"/><stop offset="1" stop-color="#2919FF"/></linearGradient><linearGradient id="e" x1="24.098" x2="42.588" y1="11.978" y2="129.255" gradientUnits="userSpaceOnUse"><stop offset=".139" stop-color="#F942FF"/><stop offset="1" stop-color="#2919FF"/></linearGradient><linearGradient id="f" x1="52.335" x2="72.768" y1="7.416" y2="123.984" gradientUnits="userSpaceOnUse"><stop offset=".046" stop-color="#F057F9"/><stop offset=".209" stop-color="#B846FB"/><stop offset=".381" stop-color="#8636FC"/><stop offset=".542" stop-color="#5D29FD"/><stop offset=".688" stop-color="#4120FE"/><stop offset=".815" stop-color="#2F1BFF"/><stop offset=".908" stop-color="#2919FF"/></linearGradient><linearGradient id="g" x1="30.032" x2="97.197" y1="64.148" y2="-33.494" gradientUnits="userSpaceOnUse"><stop offset=".001" stop-color="#FFEB49"/><stop offset=".568" stop-color="#F60"/><stop offset=".614" stop-color="#FF6109"/><stop offset=".691" stop-color="#FE5323"/><stop offset=".789" stop-color="#FC3D4C"/><stop offset=".868" stop-color="#FB2872"/></linearGradient><linearGradient id="h" x1="35.647" x2="102.811" y1="68.007" y2="-29.636" gradientUnits="userSpaceOnUse"><stop stop-color="#FFE900"/><stop offset=".568" stop-color="#FF5700"/><stop offset=".615" stop-color="#FF5009"/><stop offset=".692" stop-color="#FF3C23"/><stop offset=".791" stop-color="#FF1C4C"/><stop offset=".868" stop-color="#FF0071"/></linearGradient><linearGradient id="i" x1="48.657" x2="34.793" y1="50.222" y2="54.721" gradientUnits="userSpaceOnUse"><stop stop-color="#FF2A32" stop-opacity="0"/><stop offset=".999" stop-color="#FF0074"/></linearGradient><clipPath id="a"><path fill="#fff" d="M0 0h100v106H0z"/></clipPath></defs></svg>
